# xmcd
#
# Track frame offsets: 
#        150
#        23125
#        33287
#        43847
#        58275
#        77302
#        89437
#        100095
#        111445
#        126582
#        136917
#        150300
#        165520
#        174067
#        191957
#        219622
#        225402
#        231487
#        238747
#
# Disc length: 3510 seconds
#
# Revision: 0
# Processed by: cddbd v1.5.2PL0 Copyright (c) Steve Scherf et al.
# Submitted via: ExactAudioCopy v1.0b1
#
DISCID=fb0db413
DTITLE=James Jordan, Gloria Dei Cantores - Rubbra: Missa in Honorem Sa
DTITLE=ncti Dominici
DYEAR=1997
DGENRE=Chorus
TTITLE0=Magnificat and Nunc Dimittis, A-Flat Major, chorus and organ   M
TTITLE0=agnificat  Op. 65
TTITLE1=Magnificat and Nunc Dimittis, A-Flat Major, chorus and organ   N
TTITLE1=unc Dimittis  Op. 65
TTITLE2=Tenebrae, chorus   In Monte Oliveti  Op. 72
TTITLE3=Tenebrae, chorus   Tristis Est Anima Mea  Op. 72
TTITLE4=Tenebrae, chorus   Ecce Vidimus Eum  Op. 72
TTITLE5=Tenebrae, chorus   Amicus Meus  Op. 72
TTITLE6=Tenebrae, chorus   Judas Mercator Pessimus  Op. 72
TTITLE7=Tenebrae, chorus   Unus Ex Discipulis  Op. 72
TTITLE8=Tenebrae, chorus   Eram Quasi Agnus Innocens  Op. 72
TTITLE9=Tenebrae, chorus   Una Hora Non Potuistis  Op. 72 
TTITLE10=Tenebrae, chorus   Seniores Populi  Op. 72
TTITLE11=Salutation, chorus     Op. 82
TTITLE12=Missa in Honorem Sancti Dominici, chorus   Kyrie  Op. 66
TTITLE13=Missa in Honorem Sancti Dominici, chorus   Gloria  Op. 66
TTITLE14=Missa in Honorem Sancti Dominici, chorus   Credo  Op. 66
TTITLE15=Missa in Honorem Sancti Dominici, chorus   Sanctus  Op. 66
TTITLE16=Missa in Honorem Sancti Dominici, chorus   Benedictus  Op. 66
TTITLE17=Missa in Honorem Sancti Dominici, chorus   Agnus Dei  Op. 66
TTITLE18=Festival Gloria, chorus     Op. 94
EXTD=
EXTT0=
EXTT1=
EXTT2=
EXTT3=
EXTT4=
EXTT5=
EXTT6=
EXTT7=
EXTT8=
EXTT9=
EXTT10=
EXTT11=
EXTT12=
EXTT13=
EXTT14=
EXTT15=
EXTT16=
EXTT17=
EXTT18=
PLAYORDER=
